{"asset":{"version":"2.0","generator":"Blockbench 5.1.6 glTF exporter"},"scenes":[{"nodes":[0,1,2,3,4,5,6,7,8,9],"name":"blockbench_export"}],"scene":0,"nodes":[{"rotation":[0,-0.7071067811865475,0,0.7071067811865476],"translation":[0,0.6,0],"name":"mesh","mesh":0},{"rotation":[0.7071067811865476,4.329780281177466e-17,0.7071067811865475,4.329780281177467e-17],"translation":[0,0.7775,0],"name":"pyramid","mesh":1},{"rotation":[-0.6030496990107096,-0.37870860013678126,0.39172644182478444,0.5826330332901025],"translation":[-0.03125,0.775,0],"name":"Leaf","mesh":2},{"rotation":[0.21850801222441055,-0.6724985119639573,0.21850801222441057,0.6724985119639574],"translation":[0.18125,0.321875,-0.00625],"name":"sphere","mesh":3},{"rotation":[0.13492233454214736,-0.6941152380128942,0.13492233454214736,0.6941152380128943],"translation":[0.09375,0.40625,-0.0125],"name":"mesh","mesh":4},{"rotation":[0.13492233454214736,0.6941152380128942,-0.13492233454214736,0.6941152380128943],"translation":[-0.09375,0.40625,-0.0125],"name":"mesh","mesh":5},{"rotation":[0.21850801222441055,0.6724985119639573,-0.21850801222441057,0.6724985119639574],"translation":[-0.18125,0.321875,-0.00625],"name":"sphere","mesh":6},{"rotation":[0,0.7071067811865475,0,0.7071067811865476],"translation":[0,0.43125,0],"name":"mesh","mesh":7},{"rotation":[0,0.7071067811865475,0,0.7071067811865476],"translation":[0.0375,0.1625,-0.00625],"name":"mesh","mesh":8},{"rotation":[0,-0.7071067811865475,0,0.7071067811865476],"translation":[-0.0375,0.1625,-0.00625],"name":"mesh","mesh":9}],"bufferViews":[{"buffer":0,"byteOffset":0,"byteLength":288,"target":34962,"byteStride":12},{"buffer":0,"byteOffset":288,"byteLength":288,"target":34962,"byteStride":12},{"buffer":0,"byteOffset":576,"byteLength":192,"target":34962,"byteStride":8},{"buffer":0,"byteOffset":768,"byteLength":72,"target":34963},{"buffer":0,"byteOffset":840,"byteLength":192,"target":34962,"byteStride":12},{"buffer":0,"byteOffset":1032,"byteLength":192,"target":34962,"byteStride":12},{"buffer":0,"byteOffset":1224,"byteLength":128,"target":34962,"byteStride":8},{"buffer":0,"byteOffset":1352,"byteLength":36,"target":34963},{"buffer":0,"byteOffset":1388,"byteLength":1020,"target":34962,"byteStride":12},{"buffer":0,"byteOffset":2408,"byteLength":1020,"target":34962,"byteStride":12},{"buffer":0,"byteOffset":3428,"byteLength":680,"target":34962,"byteStride":8},{"buffer":0,"byteOffset":4108,"byteLength":236,"target":34963},{"buffer":0,"byteOffset":4344,"byteLength":1344,"target":34962,"byteStride":12},{"buffer":0,"byteOffset":5688,"byteLength":1344,"target":34962,"byteStride":12},{"buffer":0,"byteOffset":7032,"byteLength":896,"target":34962,"byteStride":8},{"buffer":0,"byteOffset":7928,"byteLength":288,"target":34963},{"buffer":0,"byteOffset":8216,"byteLength":480,"target":34962,"byteStride":12},{"buffer":0,"byteOffset":8696,"byteLength":480,"target":34962,"byteStride":12},{"buffer":0,"byteOffset":9176,"byteLength":320,"target":34962,"byteStride":8},{"buffer":0,"byteOffset":9496,"byteLength":120,"target":34963},{"buffer":0,"byteOffset":9616,"byteLength":480,"target":34962,"byteStride":12},{"buffer":0,"byteOffset":10096,"byteLength":480,"target":34962,"byteStride":12},{"buffer":0,"byteOffset":10576,"byteLength":320,"target":34962,"byteStride":8},{"buffer":0,"byteOffset":10896,"byteLength":120,"target":34963},{"buffer":0,"byteOffset":11016,"byteLength":1344,"target":34962,"byteStride":12},{"buffer":0,"byteOffset":12360,"byteLength":1344,"target":34962,"byteStride":12},{"buffer":0,"byteOffset":13704,"byteLength":896,"target":34962,"byteStride":8},{"buffer":0,"byteOffset":14600,"byteLength":288,"target":34963},{"buffer":0,"byteOffset":14888,"byteLength":288,"target":34962,"byteStride":12},{"buffer":0,"byteOffset":15176,"byteLength":288,"target":34962,"byteStride":12},{"buffer":0,"byteOffset":15464,"byteLength":192,"target":34962,"byteStride":8},{"buffer":0,"byteOffset":15656,"byteLength":72,"target":34963},{"buffer":0,"byteOffset":15728,"byteLength":480,"target":34962,"byteStride":12},{"buffer":0,"byteOffset":16208,"byteLength":480,"target":34962,"byteStride":12},{"buffer":0,"byteOffset":16688,"byteLength":320,"target":34962,"byteStride":8},{"buffer":0,"byteOffset":17008,"byteLength":120,"target":34963},{"buffer":0,"byteOffset":17128,"byteLength":480,"target":34962,"byteStride":12},{"buffer":0,"byteOffset":17608,"byteLength":480,"target":34962,"byteStride":12},{"buffer":0,"byteOffset":18088,"byteLength":320,"target":34962,"byteStride":8},{"buffer":0,"byteOffset":18408,"byteLength":120,"target":34963}],"buffers":[{"byteLength":18528,"uri":"data:application/octet-stream;base64,"}],"accessors":[{"bufferView":0,"componentType":5126,"count":24,"max":[0.08749999850988388,0.14374999701976776,0.09375],"min":[-0.10000000149011612,-0.04374999925494194,-0.09375],"type":"VEC3"},{"bufferView":1,"componentType":5126,"count":24,"max":[1,1,1],"min":[-1,-1,-1],"type":"VEC3"},{"bufferView":2,"componentType":5126,"count":24,"max":[0.0625,0.0625],"min":[0,0],"type":"VEC2"},{"bufferView":3,"componentType":5123,"count":36,"max":[23],"min":[0],"type":"SCALAR"},{"bufferView":4,"componentType":5126,"count":16,"max":[0.004687500186264515,0.04937500134110451,0.010937499813735485],"min":[-0.01718750037252903,-0.019375000149011612,-0.010937499813735485],"type":"VEC3"},{"bufferView":5,"componentType":5126,"count":16,"max":[0.9875802993774414,0.15711504220962524,0.9875802993774414],"min":[-0.9875802993774414,-1,-0.9875802993774414],"type":"VEC3"},{"bufferView":6,"componentType":5126,"count":16,"max":[0.0625,0.06987500190734863],"min":[0,0],"type":"VEC2"},{"bufferView":7,"componentType":5123,"count":18,"max":[15],"min":[0],"type":"SCALAR"},{"bufferView":8,"componentType":5126,"count":85,"max":[0.020461250096559525,0.007808750029653311,0.031024375930428505],"min":[-0.020071249455213547,0.004683750215917826,-0.03084687516093254],"type":"VEC3"},{"bufferView":9,"componentType":5126,"count":85,"max":[0.8777193427085876,1,1],"min":[-0.8777193427085876,-1,-1],"type":"VEC3"},{"bufferView":10,"componentType":5126,"count":85,"max":[0.75,0.75],"min":[0,0],"type":"VEC2"},{"bufferView":11,"componentType":5123,"count":117,"max":[84],"min":[0],"type":"SCALAR"},{"bufferView":12,"componentType":5126,"count":112,"max":[0.057243749499320984,0.0485137514770031,0.055861249566078186],"min":[-0.057243749499320984,-0.06597375124692917,-0.05862624943256378],"type":"VEC3"},{"bufferView":13,"componentType":5126,"count":112,"max":[0.9238801598548889,0.9238801598548889,0.9238801598548889],"min":[-0.9238801598548889,-0.9238801598548889,-0.9238801598548889],"type":"VEC3"},{"bufferView":14,"componentType":5126,"count":112,"max":[0.02588750049471855,0.023912489414215088],"min":[0,0],"type":"VEC2"},{"bufferView":15,"componentType":5123,"count":144,"max":[111],"min":[0],"type":"SCALAR"},{"bufferView":16,"componentType":5126,"count":40,"max":[0.04062499850988388,0.15066687762737274,0.01918499916791916],"min":[-0.02812499925494194,-0.1404224932193756,-0.08975062519311905],"type":"VEC3"},{"bufferView":17,"componentType":5126,"count":40,"max":[1,0.9848084449768066,0.9933528304100037],"min":[-1,-0.9938325881958008,-0.9773994088172913],"type":"VEC3"},{"bufferView":18,"componentType":5126,"count":40,"max":[0.0625,0.2937506437301636],"min":[0,0],"type":"VEC2"},{"bufferView":19,"componentType":5123,"count":60,"max":[39],"min":[0],"type":"SCALAR"},{"bufferView":20,"componentType":5126,"count":40,"max":[0.02812499925494194,0.15066687762737274,0.01918499916791916],"min":[-0.04062499850988388,-0.1404224932193756,-0.08975062519311905],"type":"VEC3"},{"bufferView":21,"componentType":5126,"count":40,"max":[1,0.9848084449768066,0.9933528304100037],"min":[-1,-0.9938325881958008,-0.9773994088172913],"type":"VEC3"},{"bufferView":22,"componentType":5126,"count":40,"max":[0.0625,0.2937506437301636],"min":[0,0],"type":"VEC2"},{"bufferView":23,"componentType":5123,"count":60,"max":[39],"min":[0],"type":"SCALAR"},{"bufferView":24,"componentType":5126,"count":112,"max":[0.057243749499320984,0.0485137514770031,0.055861249566078186],"min":[-0.057243749499320984,-0.06597375124692917,-0.05862624943256378],"type":"VEC3"},{"bufferView":25,"componentType":5126,"count":112,"max":[0.9238801598548889,0.9238801598548889,0.9238801598548889],"min":[-0.9238801598548889,-0.9238801598548889,-0.9238801598548889],"type":"VEC3"},{"bufferView":26,"componentType":5126,"count":112,"max":[0.02588750049471855,0.023912489414215088],"min":[0,0],"type":"VEC2"},{"bufferView":27,"componentType":5123,"count":144,"max":[111],"min":[0],"type":"SCALAR"},{"bufferView":28,"componentType":5126,"count":24,"max":[0.046875,0.125,0.05937499925494194],"min":[-0.03437500074505806,-0.125,-0.05937499925494194],"type":"VEC3"},{"bufferView":29,"componentType":5126,"count":24,"max":[1,1,1],"min":[-1,-1,-1],"type":"VEC3"},{"bufferView":30,"componentType":5126,"count":24,"max":[0.0625,0.0625],"min":[0,0],"type":"VEC2"},{"bufferView":31,"componentType":5123,"count":36,"max":[23],"min":[0],"type":"SCALAR"},{"bufferView":32,"componentType":5126,"count":40,"max":[0.05937499925494194,0.14687499403953552,0.03437500074505806],"min":[-0.04062499850988388,-0.14687499403953552,-0.03437500074505806],"type":"VEC3"},{"bufferView":33,"componentType":5126,"count":40,"max":[1,1,0.9990958571434021],"min":[-1,-1,-1],"type":"VEC3"},{"bufferView":34,"componentType":5126,"count":40,"max":[0.0625,0.0625],"min":[0,0],"type":"VEC2"},{"bufferView":35,"componentType":5123,"count":60,"max":[39],"min":[0],"type":"SCALAR"},{"bufferView":36,"componentType":5126,"count":40,"max":[0.04062499850988388,0.14687499403953552,0.03437500074505806],"min":[-0.05937499925494194,-0.14687499403953552,-0.03437500074505806],"type":"VEC3"},{"bufferView":37,"componentType":5126,"count":40,"max":[1,1,0.9990958571434021],"min":[-1,-1,-1],"type":"VEC3"},{"bufferView":38,"componentType":5126,"count":40,"max":[0.0625,0.0625],"min":[0,0],"type":"VEC2"},{"bufferView":39,"componentType":5123,"count":60,"max":[39],"min":[0],"type":"SCALAR"}],"materials":[{"pbrMetallicRoughness":{"metallicFactor":0,"roughnessFactor":1},"alphaMode":"MASK","alphaCutoff":0.05,"doubleSided":true},{"pbrMetallicRoughness":{"metallicFactor":0,"roughnessFactor":1},"alphaMode":"MASK","alphaCutoff":0.05,"doubleSided":true},{"pbrMetallicRoughness":{"metallicFactor":0,"roughnessFactor":1},"alphaMode":"MASK","alphaCutoff":0.05,"doubleSided":true},{"pbrMetallicRoughness":{"metallicFactor":0,"roughnessFactor":1},"alphaMode":"MASK","alphaCutoff":0.05,"doubleSided":true}],"meshes":[{"primitives":[{"mode":4,"attributes":{"POSITION":0,"NORMAL":1,"TEXCOORD_0":2},"indices":3,"material":0}]},{"primitives":[{"mode":4,"attributes":{"POSITION":4,"NORMAL":5,"TEXCOORD_0":6},"indices":7,"material":1}]},{"primitives":[{"mode":4,"attributes":{"POSITION":8,"NORMAL":9,"TEXCOORD_0":10},"indices":11,"material":2}]},{"primitives":[{"mode":4,"attributes":{"POSITION":12,"NORMAL":13,"TEXCOORD_0":14},"indices":15,"material":0}]},{"primitives":[{"mode":4,"attributes":{"POSITION":16,"NORMAL":17,"TEXCOORD_0":18},"indices":19,"material":2}]},{"primitives":[{"mode":4,"attributes":{"POSITION":20,"NORMAL":21,"TEXCOORD_0":22},"indices":23,"material":2}]},{"primitives":[{"mode":4,"attributes":{"POSITION":24,"NORMAL":25,"TEXCOORD_0":26},"indices":27,"material":0}]},{"primitives":[{"mode":4,"attributes":{"POSITION":28,"NORMAL":29,"TEXCOORD_0":30},"indices":31,"material":3}]},{"primitives":[{"mode":4,"attributes":{"POSITION":32,"NORMAL":33,"TEXCOORD_0":34},"indices":35,"material":2}]},{"primitives":[{"mode":4,"attributes":{"POSITION":36,"NORMAL":37,"TEXCOORD_0":38},"indices":39,"material":2}]}]}